<svg xmlns="http://www.w3.org/2000/svg" xml:space="preserve" viewBox="0 0 970 213">
  <path fill="#1f2937" fill-rule="evenodd" d="M0 35.5A35.5 35.5 0 0 1 35.5 0h143A35.5 35.5 0 0 1 214 35.5v142a35.5 35.5 0 0 1-35.5 35.5h-143A35.5 35.5 0 0 1 0 177.5v-142z"/>
  <path fill="#1f2937" d="M263.3 184.3a20 20 0 0 1-10.23-2.76 20.34 20.34 0 0 1-7.48-7.48 20.04 20.04 0 0 1-2.75-10.23c-.15-3.96.73-7.48 2.64-10.56a21.55 21.55 0 0 1 7.59-7.37 19.98 19.98 0 0 1 10.23-2.75c3.96 0 7.48.92 10.56 2.75a21.5 21.5 0 0 1 7.48 7.48 19.78 19.78 0 0 1 2.86 10.45c0 3.67-.95 7.08-2.86 10.23a21.52 21.52 0 0 1-7.48 7.48 20.25 20.25 0 0 1-10.56 2.75zm75.41.21c-11 0-19.69-2.9-26.07-8.69-6.38-5.8-9.57-15.07-9.57-27.83V76.27l-.44-1.32 5.94-25.3h23.32v93.72c0 4.7 1.13 8.1 3.41 10.23 2.27 2.13 5.17 3.2 8.69 3.2 2.34 0 4.47-.2 6.38-.56 1.9-.36 3.59-.77 5.06-1.2v26.83a40.03 40.03 0 0 1-7.48 1.98c-2.64.44-5.72.66-9.24.66zm-52.36-82.94V74.95h69.08v26.62h-69.08zm130.31 83.16c-10.7 0-20.09-2.3-28.16-6.93a47.42 47.42 0 0 1-18.7-19.47c-4.4-8.36-6.6-18.18-6.6-29.48 0-11.14 2.2-20.93 6.6-29.37a48.7 48.7 0 0 1 18.7-19.8c8.07-4.76 17.46-7.15 28.16-7.15 10.86 0 20.28 2.42 28.27 7.26a49.6 49.6 0 0 1 18.59 19.91c4.4 8.44 6.6 18.08 6.6 28.93 0 1.62-.03 3.2-.11 4.73a16.7 16.7 0 0 1-.55 3.85h-82.72v-21.56h60.94l-4.4 10.34c0-9.1-2.16-16.5-6.49-22.22-4.32-5.72-11.03-8.58-20.13-8.58-7.92 0-14.3 2.46-19.14 7.37-4.84 4.92-7.26 11.48-7.26 19.7v11.65c0 8.66 2.46 15.44 7.37 20.35 4.92 4.92 11.63 7.37 20.13 7.37 7.48 0 13.35-1.54 17.6-4.62a45.32 45.32 0 0 0 11-11.44l20.02 11.44c-4.84 8.95-11.4 15.8-19.69 20.57-8.28 4.77-18.29 7.15-30.03 7.15zm85.63-109.78 7.26 29.7v77.88h-28.82V74.95h21.56zm1.32 44.44-5.28-2.42v-22l1.98-2.42c1.61-2.64 4.07-5.5 7.37-8.58a52.21 52.21 0 0 1 11.44-8.03 28.73 28.73 0 0 1 13.53-3.4c2.35 0 4.47.14 6.38.43 1.91.3 3.37.8 4.4 1.54v26.18h-7.04c-9.53 0-16.87 1.5-22 4.51-5.13 3-8.73 7.74-10.78 14.2zM651.7 74.95l-39.38 107.58H584.6L543.24 74.95h30.36l28.16 82.28h-6.82L622 74.95h29.7zm37.39 107.58h-28.6V75.17l28.82-.22-.22 107.58zM657.41 41.51c0-5.28 1.58-9.57 4.73-12.87 3.16-3.3 7.37-4.95 12.65-4.95s9.5 1.65 12.65 4.95c3.16 3.3 4.73 7.6 4.73 12.87 0 4.99-1.57 9.1-4.73 12.32-3.15 3.23-7.37 4.84-12.65 4.84s-9.49-1.61-12.65-4.84c-3.15-3.22-4.73-7.33-4.73-12.32zm97.27 143.22c-10.7 0-20.09-2.3-28.16-6.93a47.42 47.42 0 0 1-18.7-19.47c-4.4-8.36-6.6-18.18-6.6-29.48 0-11.14 2.2-20.93 6.6-29.37a48.7 48.7 0 0 1 18.7-19.8c8.07-4.76 17.46-7.15 28.16-7.15 10.86 0 20.28 2.42 28.27 7.26a49.6 49.6 0 0 1 18.59 19.91c4.4 8.44 6.6 18.08 6.6 28.93 0 1.62-.03 3.2-.11 4.73a16.7 16.7 0 0 1-.55 3.85h-82.72v-21.56h60.94L781.3 126c0-9.1-2.16-16.5-6.49-22.22-4.32-5.72-11.03-8.58-20.13-8.58-7.92 0-14.3 2.46-19.14 7.37-4.84 4.92-7.26 11.48-7.26 19.7v11.65c0 8.66 2.46 15.44 7.37 20.35 4.92 4.92 11.63 7.37 20.13 7.37 7.48 0 13.35-1.54 17.6-4.62a45.32 45.32 0 0 0 11-11.44l20.02 11.44c-4.84 8.95-11.4 15.8-19.69 20.57-8.28 4.77-18.29 7.15-30.03 7.15zm86.16-2.2L808.06 74.95h28.38l22.88 82.06h-8.58l26.4-82.06h23.32l26.4 82.06h-8.36l22.88-82.06h27.5l-33 107.58h-25.52l-25.52-77h7.92l-25.74 77h-26.18z"/>
  <text x="242.82" y="164.6" fill-opacity="0" font-family="Arial,Arial_MSFontService,sans-serif" font-size="161.04">.terview</text>
  <path fill="#FFF" d="M70.6 176.64c-7.27 0-13.67-1.38-19.19-4.14a29.88 29.88 0 0 1-12.73-11.72c-2.96-5.05-4.44-10.94-4.44-17.67 0-6.74 1.58-12.6 4.75-17.58a32 32 0 0 1 13.03-11.61c5.52-2.76 11.78-4.14 18.78-4.14 9.56 0 17.34 2.19 23.33 6.56 6 4.38 10.07 10.6 12.22 18.69l-12.32-1.62v-23.83c0-3.77-1.34-7.14-4.04-10.1-2.69-2.97-7.07-4.45-13.13-4.45-3.77 0-7.94.44-12.52 1.31A57.7 57.7 0 0 0 50 101.3l-7.88-19.4a92.72 92.72 0 0 1 18.48-6.66 81.74 81.74 0 0 1 19.7-2.43c9.02 0 16.49 1.62 22.42 4.85a31.83 31.83 0 0 1 13.33 13.33c2.96 5.66 4.44 12.12 4.44 19.4v63.42h-21l-5.66-18.78 12.52-3.64c-2.29 7.95-6.49 14.14-12.62 18.58-6.13 4.45-13.84 6.67-23.13 6.67zm7.27-20.2c4.85 0 8.76-1.21 11.72-3.64 2.96-2.42 4.44-5.65 4.44-9.7 0-4.17-1.48-7.43-4.44-9.79-2.96-2.35-6.87-3.53-11.72-3.53-4.85 0-8.75 1.18-11.71 3.53-2.97 2.36-4.45 5.62-4.45 9.8 0 4.04 1.48 7.27 4.45 9.7 2.96 2.42 6.86 3.63 11.71 3.63zm90.5 17.37h-26.26V75.24l26.46-.2-.2 98.77zM139.28 44.33c0-4.85 1.45-8.79 4.35-11.82 2.89-3.03 6.76-4.54 11.61-4.54s8.72 1.51 11.62 4.54c2.89 3.03 4.34 6.97 4.34 11.82 0 4.58-1.45 8.35-4.34 11.31-2.9 2.97-6.77 4.45-11.62 4.45s-8.72-1.48-11.61-4.45c-2.9-2.96-4.35-6.73-4.35-11.31z"/>
  <text x="34.24" y="158.06" fill-opacity="0" font-family="Arial,Arial_MSFontService,sans-serif" font-size="148.67">ai</text>
</svg>
