<?xml version="1.0" standalone="no"?>
<!DOCTYPE svg PUBLIC "-//W3C//DTD SVG 20010904//EN"
 "http://www.w3.org/TR/2001/REC-SVG-20010904/DTD/svg10.dtd">
<svg version="1.0" xmlns="http://www.w3.org/2000/svg"
 width="387.000000pt" height="387.000000pt" viewBox="0 0 387.000000 387.000000"
 preserveAspectRatio="xMidYMid meet">

<g transform="translate(0.000000,387.000000) scale(0.100000,-0.100000)"
fill="#000000" stroke="none">
<path d="M1741 3769 c-791 -83 -1450 -680 -1611 -1456 -124 -605 61 -1224 498
-1666 296 -299 671 -482 1092 -532 158 -19 262 -19 420 0 624 74 1155 449
1440 1015 116 231 190 545 190 810 0 197 -46 450 -116 638 -293 783 -1086
1277 -1913 1191z m499 -1789 l0 -910 -169 0 -168 0 -7 38 c-3 20 -6 52 -6 71
l0 34 -48 -46 c-61 -56 -94 -73 -189 -98 -266 -68 -561 60 -686 298 -59 113
-80 205 -80 358 -1 241 70 409 227 543 104 88 235 132 391 132 146 0 217 -22
323 -101 l52 -40 0 316 0 315 180 0 180 0 0 -910z m593 -489 c75 -46 107 -107
107 -203 -1 -108 -53 -185 -154 -223 -170 -65 -347 92 -312 278 9 50 59 120
105 145 77 43 187 45 254 3z"/>
<path d="M1472 2076 c-147 -48 -230 -190 -220 -375 12 -206 134 -333 319 -334
95 -1 168 31 228 100 63 70 84 138 85 263 1 97 -2 110 -30 171 -36 76 -91 134
-154 162 -57 26 -169 32 -228 13z"/>
</g>
</svg>
