<?xml version="1.0" standalone="no"?>
<!DOCTYPE svg PUBLIC "-//W3C//DTD SVG 20010904//EN"
 "http://www.w3.org/TR/2001/REC-SVG-20010904/DTD/svg10.dtd">
<svg version="1.0" xmlns="http://www.w3.org/2000/svg"
 width="1175.000000pt" height="354.000000pt" viewBox="0 0 1175.000000 354.000000"
 preserveAspectRatio="xMidYMid meet">

<g transform="translate(0.000000,354.000000) scale(0.100000,-0.100000)" fill="currentColor" stroke="none">
<path d="M3210 3366 c-163 -35 -268 -155 -278 -317 -8 -137 46 -248 154 -316
73 -46 119 -58 224 -58 85 1 102 4 160 31 74 36 140 98 170 161 68 144 45 299
-58 402 -60 60 -94 78 -180 97 -79 16 -118 16 -192 0z"/>
<path d="M7100 3370 c-117 -25 -231 -120 -266 -222 -24 -69 -24 -177 0 -246
22 -65 101 -154 165 -187 146 -74 339 -51 450 53 97 92 136 246 95 379 -25 79
-113 170 -197 202 -67 25 -181 34 -247 21z"/>
<path d="M1820 2669 l0 -530 -60 53 c-173 153 -335 204 -609 195 -174 -5 -271
-27 -408 -92 -270 -127 -463 -369 -545 -683 -27 -104 -31 -137 -35 -302 -4
-141 -1 -207 11 -276 73 -424 326 -729 701 -847 229 -72 518 -58 712 33 78 36
120 67 201 144 l62 60 0 -127 0 -127 285 0 285 0 0 1515 0 1515 -300 0 -300 0
0 -531z m-365 -814 c28 -8 77 -30 110 -50 197 -118 287 -333 263 -625 -21
-258 -184 -462 -406 -509 -181 -38 -369 15 -492 140 -111 113 -163 257 -163
454 1 190 47 331 147 442 131 146 341 203 541 148z"/>
<path d="M5710 2670 c0 -291 -3 -530 -6 -530 -3 0 -36 27 -72 61 -43 39 -98
76 -157 105 -141 69 -191 79 -400 79 -157 0 -191 -3 -265 -23 -191 -52 -309
-121 -450 -262 -203 -203 -300 -437 -316 -760 -26 -516 206 -938 610 -1113
119 -51 228 -76 366 -84 273 -14 483 56 646 214 l64 63 0 -125 0 -125 290 0
290 0 0 1515 0 1515 -300 0 -300 0 0 -530z m-358 -820 c164 -51 301 -208 349
-400 20 -80 18 -298 -4 -380 -28 -107 -73 -186 -146 -259 -107 -108 -214 -152
-366 -150 -209 1 -378 106 -470 291 -73 149 -86 387 -31 553 97 289 378 434
668 345z"/>
<path d="M9128 2380 c-162 -29 -316 -108 -435 -223 l-43 -41 0 122 0 122 -290
0 -290 0 0 -1095 0 -1095 305 0 305 0 0 614 c0 679 2 703 62 826 83 170 268
263 459 231 39 -6 92 -22 118 -35 60 -31 126 -102 157 -171 50 -109 54 -169
54 -842 l0 -623 299 0 300 0 3 628 c4 610 4 629 26 706 53 190 172 304 352
336 180 32 347 -44 420 -193 56 -115 60 -166 60 -854 l0 -623 301 0 300 0 -4
738 c-4 791 -4 785 -58 952 -82 250 -266 427 -520 501 -112 32 -351 38 -479
11 -186 -38 -342 -124 -469 -257 -40 -42 -74 -75 -75 -73 -1 1 -22 30 -46 62
-86 114 -215 202 -370 252 -75 24 -103 27 -240 30 -85 1 -176 -1 -202 -6z"/>
<path d="M3000 1265 l0 -1095 305 0 305 0 0 1095 0 1095 -305 0 -305 0 0
-1095z"/>
<path d="M6880 1265 l0 -1095 305 0 305 0 0 1095 0 1095 -305 0 -305 0 0
-1095z"/>
</g>
</svg>
